<svg width="16" height="16" viewBox="0 0 16 16" fill="none" xmlns="http://www.w3.org/2000/svg">
<path d="M11.8359 7.02344H11.5651V5.39844C11.5651 3.1581 9.74348 1.33594 7.5026 1.33594C5.26227 1.33594 3.4401 3.1581 3.4401 5.39844V7.02344H3.16927C2.57127 7.02344 2.08594 7.50877 2.08594 8.10677V13.5234C2.08594 14.1214 2.57127 14.6068 3.16927 14.6068H11.8359C12.4339 14.6068 12.9193 14.1214 12.9193 13.5234V8.10677C12.9193 7.50877 12.4339 7.02344 11.8359 7.02344ZM8.04427 10.6651V12.1693C8.04427 12.3182 7.9224 12.4401 7.77344 12.4401H7.23177C7.08227 12.4401 6.96094 12.3182 6.96094 12.1693V10.6651C6.63865 10.4771 6.41927 10.1326 6.41927 9.73177C6.41927 9.13377 6.9046 8.64844 7.5026 8.64844C8.1006 8.64844 8.58594 9.13377 8.58594 9.73177C8.58594 10.1315 8.3671 10.4771 8.04427 10.6651ZM9.9401 7.02344H5.0651V5.39844C5.0651 4.05456 6.15873 2.96094 7.5026 2.96094C8.84594 2.96094 9.9401 4.05456 9.9401 5.39844V7.02344Z" fill="#1F1F1F"/>
</svg>
